<svg xmlns="http://www.w3.org/2000/svg"  viewBox="0 0 72 72" width="64px" height="64px"><path d="M 29.5 14 C 15.125 14 14 15.125 14 29.5 L 14 42.5 C 14 56.875 15.125 58 29.5 58 L 42.5 58 C 56.875 58 58 56.875 58 42.5 L 58 29.5 C 58 15.125 56.875 14 42.5 14 L 29.5 14 z M 26 22 L 46 22 C 49.71 22 50 22.29 50 26 L 50 46 C 50 49.71 49.71 50 46 50 L 26 50 C 22.29 50 22 49.71 22 46 L 22 26 C 22 22.29 22.29 22 26 22 z M 35.021484 29.181641 C 31.381484 29.181641 31.214437 30.036141 31.648438 30.244141 C 32.184438 30.502141 32.919922 30.813938 32.919922 32.335938 C 32.919922 34.566938 32.932063 35.886719 32.289062 35.886719 C 31.646062 35.886719 31.308641 35.583219 29.931641 33.074219 C 28.309641 30.118219 28.318828 29.777344 27.173828 29.777344 L 24.181641 29.777344 C 23.586641 29.777344 23.415453 30.262141 23.564453 30.619141 C 23.753453 31.072141 26.443297 37.160203 29.279297 40.033203 C 32.115297 42.906203 35.011547 42.818359 35.435547 42.818359 L 36.226562 42.818359 C 37.114563 42.818359 37.433766 42.311391 37.509766 41.900391 C 37.766766 40.511391 37.849531 39.691406 38.394531 39.691406 C 38.915531 39.691406 39.234125 40.014 41.578125 42.375 C 41.867125 42.665 42.120812 42.818359 42.882812 42.818359 L 46.369141 42.818359 C 47.002141 42.818359 48.043953 42.713531 47.251953 41.394531 C 47.184953 41.285531 46.789094 40.418719 44.871094 38.636719 C 43.238094 37.114719 43.322563 36.948109 45.476562 33.787109 C 47.202563 31.254109 47.463031 30.792141 47.332031 30.369141 C 47.211031 29.980141 47.062969 29.828125 46.167969 29.828125 C 45.390969 29.828125 43.451219 29.777344 42.824219 29.777344 C 41.876219 29.777344 41.740203 30.472641 40.408203 33.181641 C 39.330203 35.372641 38.774687 36.027344 38.304688 36.027344 C 37.768687 36.027344 37.484375 35.468766 37.484375 33.384766 C 37.484375 30.423766 37.624484 29.181641 35.021484 29.181641 z"/></svg>